<svg width="395" height="250" viewBox="0 0 395 250" fill="none" xmlns="http://www.w3.org/2000/svg">
<mask id="mask0" mask-type="alpha" maskUnits="userSpaceOnUse" x="0" y="0" width="395" height="250">
<path d="M1.29932 1.25H393.701V248.75H1.29932V1.25Z" fill="#F8F7F9" stroke="#B1A6F1" stroke-width="2"/>
</mask>
<g mask="url(#mask0)">
<path d="M31.3054 740.033L227.387 642.819C233.607 639.588 283.225 615.205 431.938 543.526C580.65 471.848 573.408 368.658 551.197 326.021C538.703 300.781 512.107 247.423 505.674 235.905C499.241 224.389 510.647 213.201 517.154 209.046C584.188 169.581 651.651 113.642 632.264 70.3138C555.188 -101.939 509.764 -205.021 471.999 -259.697C434.235 -314.375 391.171 -296.649 378.969 -292.631C369.208 -289.419 294.709 -248.087 258.68 -227.824L244.608 -253.017C238.173 -264.535 225.37 -261.597 219.771 -258.69C5.74677 -149.06 -429.766 74.0785 -459.623 89.5882C-489.48 105.098 -487.659 122.725 -483.015 129.6C-425.336 234.296 -288.696 480.926 -203.571 629.873C-118.446 778.819 -11.5179 765.374 31.3054 740.033Z" fill="#FDDC9A"/>
<path d="M260.456 -365.911C391.572 -426.117 478.463 -339.924 503.238 -294.312C519.754 -340.454 620.5 -399.985 708.034 -373.866C894.661 -318.179 853.773 -144.581 836.856 -108.157C788.821 -4.73672 561.043 306.054 524.708 329.389C488.375 352.725 273.67 87.5461 224.124 -4.73669C174.576 -97.0196 83.7392 -284.766 260.456 -365.911Z" fill="#FCB935"/>
</g>
<path d="M32.1136 208H34.2273V201.625H38.0455C42.1108 201.625 43.9432 199.153 43.9432 196.068C43.9432 192.983 42.1108 190.545 38.0114 190.545H32.1136V208ZM34.2273 199.75V192.42H37.9432C40.7812 192.42 41.8636 193.972 41.8636 196.068C41.8636 198.165 40.7812 199.75 37.9773 199.75H34.2273ZM47.0753 208H49.0866V199.716C49.0866 197.943 50.4844 196.648 52.3935 196.648C52.9304 196.648 53.4844 196.75 53.6207 196.784V194.739C53.3906 194.722 52.8622 194.705 52.5639 194.705C50.9957 194.705 49.6321 195.591 49.1548 196.886H49.0185V194.909H47.0753V208ZM60.9247 208.273C64.4702 208.273 66.8565 205.58 66.8565 201.523C66.8565 197.432 64.4702 194.739 60.9247 194.739C57.3793 194.739 54.9929 197.432 54.9929 201.523C54.9929 205.58 57.3793 208.273 60.9247 208.273ZM60.9247 206.466C58.2315 206.466 57.0043 204.148 57.0043 201.523C57.0043 198.898 58.2315 196.545 60.9247 196.545C63.6179 196.545 64.8452 198.898 64.8452 201.523C64.8452 204.148 63.6179 206.466 60.9247 206.466Z" fill="#FF9F1C"/>
</svg>
